{
  "accessors": [
    {
      "name": "多边形-Mesh_0_positions",
      "componentType": 5126,
      "count": 9998,
      "min": [
        8.000155448913574,
        0.00003011372609762475,
        95.00001525878906
      ],
      "max": [
        415.4999694824219,
        42.15916442871094,
        632.75
      ],
      "type": "VEC3",
      "bufferView": 0,
      "byteOffset": 0
    },
    {
      "name": "多边形-Mesh_0_normals",
      "componentType": 5126,
      "count": 9998,
      "min": [
        -0.9994677305221558,
        -1,
        -0.9999286532402039
      ],
      "max": [
        1,
        1,
        0.9987705945968628
      ],
      "type": "VEC3",
      "bufferView": 1,
      "byteOffset": 0
    },
    {
      "name": "多边形-Mesh_0_texcoords",
      "componentType": 5126,
      "count": 9998,
      "min": [
        0.0005074493819847703,
        0.15654170513153076
      ],
      "max": [
        0.9993200898170471,
        0.9183826446533203
      ],
      "type": "VEC2",
      "bufferView": 2,
      "byteOffset": 0
    },
    {
      "name": "多边形-Mesh_0_indices",
      "componentType": 5123,
      "count": 59475,
      "min": [
        0
      ],
      "max": [
        9997
      ],
      "type": "SCALAR",
      "bufferView": 3,
      "byteOffset": 0
    }
  ],
  "asset": {
    "generator": "obj2gltf",
    "version": "2.0"
  },
  "buffers": [
    {
      "name": "20",
      "byteLength": 438888,
      "uri": "data:application/octet-stream;base64,"
    }
  ],
  "bufferViews": [
    {
      "name": "bufferView_0",
      "buffer": 0,
      "byteLength": 119976,
      "byteOffset": 0,
      "byteStride": 12,
      "target": 34962
    },
    {
      "name": "bufferView_1",
      "buffer": 0,
      "byteLength": 119976,
      "byteOffset": 119976,
      "byteStride": 12,
      "target": 34962
    },
    {
      "name": "bufferView_2",
      "buffer": 0,
      "byteLength": 79984,
      "byteOffset": 239952,
      "byteStride": 8,
      "target": 34962
    },
    {
      "name": "bufferView_3",
      "buffer": 0,
      "byteLength": 118952,
      "byteOffset": 319936,
      "target": 34963
    }
  ],
  "materials": [
    {
      "name": "Default",
      "pbrMetallicRoughness": {
        "baseColorFactor": [
          1,
          1,
          1,
          1
        ],
        "metallicFactor": 0,
        "roughnessFactor": 0.95
      },
      "emissiveFactor": [
        0,
        0,
        0
      ],
      "alphaMode": "OPAQUE",
      "doubleSided": false
    }
  ],
  "meshes": [
    {
      "name": "多边形-Mesh",
      "primitives": [
        {
          "attributes": {
            "POSITION": 0,
            "NORMAL": 1,
            "TEXCOORD_0": 2
          },
          "indices": 3,
          "material": 0,
          "mode": 4
        }
      ]
    }
  ],
  "nodes": [
    {
      "name": "多边形",
      "mesh": 0
    }
  ],
  "scene": 0,
  "scenes": [
    {
      "nodes": [
        0
      ]
    }
  ]
}
